<mxfile host="app.diagrams.net" agent="Mozilla/5.0 (Windows NT 10.0; Win64; x64) AppleWebKit/537.36 (KHTML, like Gecko) Chrome/137.0.0.0 Safari/537.36" version="27.1.4">
  <diagram name="Página-1" id="z-HyZpqId0rXOMVisHhJ">
    <mxGraphModel dx="1937" dy="1781" grid="1" gridSize="10" guides="1" tooltips="1" connect="1" arrows="1" fold="1" page="1" pageScale="1" pageWidth="827" pageHeight="1169" math="0" shadow="0">
      <root>
        <mxCell id="0" />
        <mxCell id="1" parent="0" />
        <mxCell id="wEq7oo5EjeGc18jzNLCR-1" value="OrdemProdução" style="swimlane;childLayout=stackLayout;horizontal=1;startSize=50;horizontalStack=0;rounded=1;fontSize=14;fontStyle=0;strokeWidth=2;resizeParent=0;resizeLast=1;shadow=0;dashed=0;align=center;arcSize=4;whiteSpace=wrap;html=1;" vertex="1" parent="1">
          <mxGeometry x="-80" y="-10" width="160" height="190" as="geometry" />
        </mxCell>
        <mxCell id="wEq7oo5EjeGc18jzNLCR-2" value="- id: Long&lt;div&gt;- codigo: String&lt;/div&gt;&lt;div&gt;- dataCriacao: Date&lt;/div&gt;&lt;div&gt;- status: String&lt;/div&gt;&lt;div&gt;&lt;br&gt;&lt;/div&gt;&lt;div&gt;+ getNotas(): List&lt;/div&gt;" style="align=left;strokeColor=none;fillColor=none;spacingLeft=4;spacingRight=4;fontSize=12;verticalAlign=top;resizable=0;rotatable=0;part=1;html=1;whiteSpace=wrap;" vertex="1" parent="wEq7oo5EjeGc18jzNLCR-1">
          <mxGeometry y="50" width="160" height="140" as="geometry" />
        </mxCell>
        <mxCell id="wEq7oo5EjeGc18jzNLCR-4" style="edgeStyle=orthogonalEdgeStyle;rounded=0;orthogonalLoop=1;jettySize=auto;html=1;exitX=0.5;exitY=1;exitDx=0;exitDy=0;" edge="1" parent="wEq7oo5EjeGc18jzNLCR-1" source="wEq7oo5EjeGc18jzNLCR-2" target="wEq7oo5EjeGc18jzNLCR-2">
          <mxGeometry relative="1" as="geometry" />
        </mxCell>
        <mxCell id="wEq7oo5EjeGc18jzNLCR-6" value="NotaFiscal" style="swimlane;childLayout=stackLayout;horizontal=1;startSize=50;horizontalStack=0;rounded=1;fontSize=14;fontStyle=0;strokeWidth=2;resizeParent=0;resizeLast=1;shadow=0;dashed=0;align=center;arcSize=4;whiteSpace=wrap;html=1;" vertex="1" parent="1">
          <mxGeometry x="230" y="-10" width="160" height="190" as="geometry" />
        </mxCell>
        <mxCell id="wEq7oo5EjeGc18jzNLCR-7" value="- id: Long&lt;div&gt;- numero: String&lt;/div&gt;&lt;div&gt;- daraEmissao: Date&lt;/div&gt;&lt;div&gt;- valor: Decimal&lt;/div&gt;&lt;div&gt;- ordemProdução: OrdemProdução&lt;/div&gt;" style="align=left;strokeColor=none;fillColor=none;spacingLeft=4;spacingRight=4;fontSize=12;verticalAlign=top;resizable=0;rotatable=0;part=1;html=1;whiteSpace=wrap;" vertex="1" parent="wEq7oo5EjeGc18jzNLCR-6">
          <mxGeometry y="50" width="160" height="140" as="geometry" />
        </mxCell>
        <mxCell id="wEq7oo5EjeGc18jzNLCR-8" style="edgeStyle=orthogonalEdgeStyle;rounded=0;orthogonalLoop=1;jettySize=auto;html=1;exitX=0.5;exitY=1;exitDx=0;exitDy=0;" edge="1" parent="wEq7oo5EjeGc18jzNLCR-6" source="wEq7oo5EjeGc18jzNLCR-7" target="wEq7oo5EjeGc18jzNLCR-7">
          <mxGeometry relative="1" as="geometry" />
        </mxCell>
        <mxCell id="wEq7oo5EjeGc18jzNLCR-13" style="edgeStyle=orthogonalEdgeStyle;rounded=0;orthogonalLoop=1;jettySize=auto;html=1;entryX=0;entryY=0.5;entryDx=0;entryDy=0;" edge="1" parent="1" source="wEq7oo5EjeGc18jzNLCR-2" target="wEq7oo5EjeGc18jzNLCR-7">
          <mxGeometry relative="1" as="geometry" />
        </mxCell>
        <mxCell id="wEq7oo5EjeGc18jzNLCR-14" style="edgeStyle=orthogonalEdgeStyle;rounded=0;orthogonalLoop=1;jettySize=auto;html=1;" edge="1" parent="1" source="wEq7oo5EjeGc18jzNLCR-7">
          <mxGeometry relative="1" as="geometry">
            <mxPoint x="80" y="110" as="targetPoint" />
            <Array as="points">
              <mxPoint x="150" y="110" />
              <mxPoint x="150" y="111" />
            </Array>
          </mxGeometry>
        </mxCell>
      </root>
    </mxGraphModel>
  </diagram>
</mxfile>
